Coordinates
version=1
nRows=10
nColumns=34
inDegrees=yes

Units are S.I. units (second, meters, Newtons, ...)
Angles are in degrees.

endheader
time	pelvis_tilt	pelvis_list	pelvis_rotation	pelvis_tx	pelvis_ty	pelvis_tz	hip_flexion_r	hip_adduction_r	hip_rotation_r	knee_angle_r	ankle_angle_r	subtalar_angle_r	mtp_angle_r	hip_flexion_l	hip_adduction_l	hip_rotation_l	knee_angle_l	socket_flexion	socket_adduction	socket_rotation	socket_tx	socket_ty	socket_tz	pros_ankle_rx	pros_ankle_ry	pros_ankle_rz	pros_ankle_tx	pros_ankle_ty	pros_ankle_tz	foot_flex	lumbar_extension	lumbar_bending	lumbar_rotation
      0.00000000	     -0.59426557	    -10.36767598	      2.50387705	     -0.78644171	      1.04064430	      0.35622907	    -21.10994089	     13.58570166	    -11.76372017	      2.35113575	      1.91371867	     25.11797589	     27.33022744	     23.55122246	     -8.45567803	      8.22668092	     -0.64116707	      3.44835684	      0.00000000	      0.00000000	      0.00000000	      0.00000000	      0.00000000	      0.00000000	      0.00000000	      0.00000000	      0.00000000	      0.00000000	      0.00000000	      2.36009631	     -8.96315862	      8.39589689	    -16.02817561
      0.00416667	     -0.61769276	    -10.38232459	      2.43427847	     -0.78165140	      1.03980103	      0.35621333	    -21.31381912	     13.55122986	    -11.74170378	      2.24617855	      1.91206066	     25.13780448	     27.33521464	     23.65732326	     -8.42588184	      8.23419969	     -0.80968443	      3.64268909	      0.00000000	      0.00000000	      0.00000000	      0.00000000	      0.00000000	      0.00000000	      0.00000000	      0.00000000	      0.00000000	      0.00000000	      0.00000000	      2.14717064	     -8.94654539	      8.36574133	    -16.02665582
      0.00833333	     -0.64562325	    -10.38530513	      2.37443029	     -0.77669227	      1.03892201	      0.35619806	    -21.51971362	     13.50433272	    -11.69508506	      2.13534656	      1.91860431	     25.17192221	     27.34512960	     23.77846780	     -8.38045551	      8.24972770	     -0.99460511	      3.85953121	      0.00000000	      0.00000000	      0.00000000	      0.00000000	      0.00000000	      0.00000000	      0.00000000	      0.00000000	      0.00000000	      0.00000000	      0.00000000	      1.89714341	     -8.93741999	      8.31336057	    -16.01977002
      0.01250000	     -0.68447880	    -10.37605055	      2.32036412	     -0.77157196	      1.03800398	      0.35616996	    -21.72352228	     13.44640740	    -11.62807289	      2.01954937	      1.93569575	     25.21957720	     27.36126330	     23.91196627	     -8.31753335	      8.27002780	     -1.19305491	      4.08967552	      0.00000000	      0.00000000	      0.00000000	      0.00000000	      0.00000000	      0.00000000	      0.00000000	      0.00000000	      0.00000000	      0.00000000	      0.00000000	      1.62845442	     -8.93587597	      8.23049228	    -16.00781073
      0.01666667	     -0.72888035	    -10.35403107	      2.26686467	     -0.76632431	      1.03707552	      0.35614949	    -21.92228879	     13.37246745	    -11.54732956	      1.89927381	      1.96078891	     25.27792273	     27.38488369	     24.05343686	     -8.24294824	      8.28983152	     -1.41562844	      4.33528960	      0.00000000	      0.00000000	      0.00000000	      0.00000000	      0.00000000	      0.00000000	      0.00000000	      0.00000000	      0.00000000	      0.00000000	      0.00000000	      1.35168491	     -8.93645786	      8.11744592	    -15.99063252
      0.02083333	     -0.77707900	    -10.32268857	      2.20282478	     -0.76093700	      1.03615303	      0.35613154	    -22.11988413	     13.28565154	    -11.47201945	      1.77203672	      1.98587054	     25.33595374	     27.41382256	     24.19409731	     -8.16257892	      8.30549630	     -1.65940390	      4.58833306	      0.00000000	      0.00000000	      0.00000000	      0.00000000	      0.00000000	      0.00000000	      0.00000000	      0.00000000	      0.00000000	      0.00000000	      0.00000000	      1.08596287	     -8.93329249	      7.98943476	    -15.97103761
      0.02500000	     -0.90924301	    -10.18718571	      2.10280275	     -0.75539873	      1.03512063	      0.35624785	    -22.23627896	     13.08323415	    -11.35369038	      1.63386381	      2.09374219	     25.48219495	     27.53233239	     24.40264995	     -7.99147650	      8.28979495	     -1.92966806	      4.85145129	      0.00000000	      0.00000000	      0.00000000	      0.00000000	      0.00000000	      0.00000000	      0.00000000	      0.00000000	      0.00000000	      0.00000000	      0.00000000	      0.83236989	     -8.95741782	      7.59965770	    -15.90567147
      0.02916667	     -0.98372127	    -10.08645868	      2.00770741	     -0.74979016	      1.03421348	      0.35629909	    -22.36674336	     12.90025989	    -11.33803654	      1.41355936	      2.12991597	     25.60174053	     27.69259692	     24.54829219	     -7.85632965	      8.22502490	     -2.21930717	      5.12730040	      0.00000000	      0.00000000	      0.00000000	      0.00000000	      0.00000000	      0.00000000	      0.00000000	      0.00000000	      0.00000000	      0.00000000	      0.00000000	      0.61169661	     -8.89584541	      7.35152404	    -15.84546132
      0.03333333	     -1.09258920	     -9.97862203	      1.95860999	     -0.74404667	      1.03320677	      0.35633442	    -22.20576487	     12.65945279	    -12.03432838	      0.79564904	      2.09466183	     26.71584934	     30.78376653	     24.75335243	     -7.69525637	      8.16738464	     -2.10863512	      6.17299411	      0.00000000	      0.00000000	      0.00000000	      0.00000000	      0.00000000	      0.00000000	      0.00000000	      0.00000000	      0.00000000	      0.00000000	      0.00000000	      0.72586592	     -8.76702544	      7.11664735	    -15.97057447
      0.03750000	     -1.12692498	     -9.91288008	      1.93597014	     -0.73848424	      1.03236296	      0.35620784	    -22.35879051	     12.53642028	    -11.95663240	      0.56427800	      2.05674691	     26.67603680	     30.80764769	     24.90352668	     -7.57055746	      8.23257647	     -2.44389104	      6.53045234	      0.00000000	      0.00000000	      0.00000000	      0.00000000	      0.00000000	      0.00000000	      0.00000000	      0.00000000	      0.00000000	      0.00000000	      0.00000000	      0.55769078	     -8.78416013	      6.93415077	    -15.89367194
